<?xml version="1.0" standalone="no"?>
<!DOCTYPE svg PUBLIC "-//W3C//DTD SVG 20010904//EN"
 "http://www.w3.org/TR/2001/REC-SVG-20010904/DTD/svg10.dtd">
<svg version="1.0" xmlns="http://www.w3.org/2000/svg"
 width="360.000000pt" height="640.000000pt" viewBox="0 0 360.000000 640.000000"
 preserveAspectRatio="xMidYMid meet">
<metadata>
Created by potrace 1.16, written by Peter Selinger 2001-2019
</metadata>
<g transform="translate(0.000000,640.000000) scale(0.100000,-0.100000)"
fill="#000000" stroke="none">
<path d="M3185 6191 c-47 -12 -87 -36 -121 -73 -52 -55 -68 -95 -68 -173 0
-78 16 -118 68 -173 52 -56 101 -76 181 -76 80 0 129 20 181 76 53 55 68 95
68 173 0 100 -48 180 -136 226 -42 21 -129 32 -173 20z m165 -31 c122 -63 169
-210 105 -327 -28 -52 -45 -60 -45 -21 0 11 -15 35 -34 54 -33 33 -36 34 -115
34 -54 0 -92 -5 -111 -15 -32 -16 -60 -61 -60 -95 0 -25 -8 -26 -27 -2 -78 99
-74 233 10 320 75 78 185 99 277 52z m17 -305 c27 -27 34 -41 31 -67 -7 -73
-160 -109 -255 -59 -50 25 -56 54 -23 109 26 42 49 51 139 51 70 1 74 0 108
-34z"/>
<path d="M3179 6091 c-64 -64 -20 -171 70 -171 60 0 106 43 106 100 0 90 -112
135 -176 71z m114 7 c34 -18 46 -39 47 -81 0 -82 -91 -117 -151 -58 -20 20
-29 39 -29 61 0 64 76 109 133 78z"/>
<path d="M1446 5979 c-20 -16 -26 -29 -26 -60 0 -50 27 -79 75 -79 48 0 75 29
75 80 0 71 -67 104 -124 59z"/>
<path d="M630 5898 c0 -51 2 -58 19 -58 16 0 20 8 23 42 4 59 28 63 28 4 0
-39 3 -46 20 -46 16 0 20 7 20 33 0 17 4 38 9 46 15 23 31 2 31 -40 0 -32 3
-39 20 -39 17 0 20 7 20 48 0 26 -4 52 -8 59 -4 7 -38 11 -95 10 l-87 0 0 -59z"/>
<path d="M1850 5898 c0 -51 2 -58 19 -58 16 0 20 8 23 42 4 59 28 63 28 4 0
-42 2 -46 25 -46 23 0 25 4 25 46 0 59 24 55 28 -4 3 -34 7 -42 23 -42 16 0
19 7 19 48 0 26 -4 52 -8 59 -4 7 -38 11 -95 10 l-87 0 0 -59z"/>
<path d="M393 5273 c-10 -4 -13 -227 -13 -1071 0 -587 4 -1073 8 -1080 7 -10
287 -12 1368 -10 l1359 3 3 1060 c1 583 0 1070 -3 1083 l-5 22 -1353 -1 c-743
0 -1358 -3 -1364 -6z m2715 -230 l2 -223 -1360 0 -1360 0 0 218 c0 120 3 222
7 225 3 4 614 6 1357 5 l1351 -3 3 -222z m0 -1080 l-3 -838 -1355 0 -1355 0
-3 838 -2 837 1360 0 1360 0 -2 -837z"/>
<path d="M494 4337 c-2 -7 -3 -94 -2 -192 l3 -180 1255 0 1255 0 0 190 0 190
-1253 3 c-1014 2 -1254 0 -1258 -11z m2501 -182 l0 -180 -1245 0 -1245 0 -3
170 c-1 93 0 175 2 182 4 11 241 13 1248 11 l1243 -3 0 -180z"/>
<path d="M393 2643 c-10 -3 -13 -57 -13 -221 0 -119 4 -223 8 -230 7 -10 287
-12 1368 -10 l1359 3 3 210 c1 116 0 220 -3 233 l-5 22 -1353 -1 c-743 0
-1358 -3 -1364 -6z m2712 -228 l0 -220 -1355 0 -1355 0 -3 210 c-1 115 0 215
2 222 4 11 267 13 1358 11 l1353 -3 0 -220z"/>
<path d="M393 1733 c-10 -3 -13 -57 -13 -221 0 -119 4 -223 8 -230 7 -10 287
-12 1368 -10 l1359 3 3 210 c1 116 0 220 -3 233 l-5 22 -1353 -1 c-743 0
-1358 -3 -1364 -6z m2712 -228 l0 -220 -1355 0 -1355 0 -3 210 c-1 115 0 215
2 222 4 11 267 13 1358 11 l1353 -3 0 -220z"/>
<path d="M170 535 l0 -385 1635 0 1635 0 0 385 0 385 -1635 0 -1635 0 0 -385z
m3260 0 l0 -375 -1625 0 -1625 0 0 375 0 375 1625 0 1625 0 0 -375z"/>
<path d="M1676 661 c-124 -124 -139 -153 -83 -159 l27 -3 0 -98 c0 -62 4 -101
12 -109 7 -7 36 -12 65 -12 l53 0 0 89 c0 96 3 101 60 101 57 0 60 -5 60 -101
l0 -89 53 0 c29 0 58 5 65 12 8 8 12 47 12 109 l0 98 28 3 c39 4 40 36 2 73
-27 26 -30 35 -30 90 0 34 -5 66 -12 73 -19 19 -65 14 -81 -8 -13 -19 -15 -18
-47 15 -19 19 -41 35 -50 35 -8 0 -69 -53 -134 -119z"/>
<path d="M2334 757 c-2 -7 -3 -118 -2 -247 l3 -235 175 0 175 0 3 188 2 187
-62 60 -63 59 -113 1 c-82 0 -114 -3 -118 -13z m186 -70 c0 -29 5 -58 12 -65
7 -7 38 -12 70 -12 l58 0 0 -155 0 -155 -150 0 -150 0 0 220 0 220 80 0 80 0
0 -53z"/>
<path d="M3060 738 c-37 -10 -93 -48 -122 -83 -10 -11 -25 -44 -34 -74 -36
-119 32 -240 155 -277 119 -36 240 32 277 155 20 67 8 135 -34 190 -39 53 -61
69 -116 86 -56 17 -76 17 -126 3z m148 -37 c72 -37 112 -102 112 -181 0 -113
-87 -200 -200 -200 -214 0 -277 282 -85 383 42 23 127 21 173 -2z"/>
<path d="M970 728 c-1 -5 -3 -14 -4 -20 0 -7 -13 -14 -29 -16 l-27 -3 2 -185
3 -185 223 0 c122 0 229 1 237 1 13 0 15 25 13 183 l-3 182 -27 3 c-16 2 -28
9 -28 18 0 8 -4 14 -10 14 -5 0 -10 -7 -10 -15 0 -11 -12 -15 -45 -15 -36 0
-45 3 -45 18 -1 16 -1 16 -14 0 -18 -24 -106 -26 -106 -3 0 8 -4 15 -10 15 -5
0 -10 -7 -10 -15 0 -11 -12 -15 -49 -15 -43 0 -50 3 -54 23 -2 12 -5 19 -7 15z
m1 -70 c0 -10 2 -10 6 0 6 16 95 16 111 0 9 -9 12 -9 12 0 0 17 96 16 104 0 5
-10 7 -10 12 0 7 16 86 16 102 0 9 -9 12 -9 12 0 0 7 11 12 25 12 18 0 25 -5
25 -20 0 -19 -7 -20 -230 -20 -223 0 -230 1 -230 20 0 15 7 20 25 20 14 0 25
-6 26 -12z m399 -188 l0 -140 -219 0 c-190 0 -220 2 -225 16 -3 9 -6 72 -6
140 l0 124 225 0 225 0 0 -140z"/>
<path d="M410 686 l0 -35 -57 -3 -58 -3 -3 -52 -3 -53 60 0 61 0 0 -37 1 -38
54 60 c30 33 55 65 55 71 0 11 -87 117 -101 122 -5 2 -9 -12 -9 -32z"/>
<path d="M508 516 c-27 -30 -48 -63 -48 -73 0 -10 23 -43 50 -73 l49 -55 1 37
0 37 63 3 62 3 0 50 0 50 -60 5 c-59 5 -60 6 -65 38 l-5 34 -47 -56z"/>
</g>
</svg>
