<?xml version="1.0" standalone="no"?>
<!DOCTYPE svg PUBLIC "-//W3C//DTD SVG 20010904//EN"
 "http://www.w3.org/TR/2001/REC-SVG-20010904/DTD/svg10.dtd">
<svg version="1.0" xmlns="http://www.w3.org/2000/svg"
 width="360.000000pt" height="640.000000pt" viewBox="0 0 360.000000 640.000000"
 preserveAspectRatio="xMidYMid meet">
<metadata>
Created by potrace 1.16, written by Peter Selinger 2001-2019
</metadata>
<g transform="translate(0.000000,640.000000) scale(0.100000,-0.100000)"
fill="#000000" stroke="none">
<path d="M2975 6221 c-47 -12 -87 -36 -121 -73 -52 -55 -68 -95 -68 -173 0
-78 16 -118 68 -173 52 -56 101 -76 181 -76 80 0 129 20 181 76 53 55 68 95
68 173 0 100 -48 180 -136 226 -42 21 -129 32 -173 20z m165 -31 c122 -63 169
-210 105 -327 -28 -52 -45 -60 -45 -21 0 11 -15 35 -34 54 -33 33 -36 34 -115
34 -54 0 -92 -5 -111 -15 -32 -16 -60 -61 -60 -95 0 -25 -8 -26 -27 -2 -78 99
-74 233 10 320 75 78 185 99 277 52z m17 -305 c27 -27 34 -41 31 -67 -7 -73
-160 -109 -255 -59 -50 25 -56 54 -23 109 26 42 49 51 139 51 70 1 74 0 108
-34z"/>
<path d="M2969 6121 c-64 -64 -20 -171 70 -171 60 0 106 43 106 100 0 90 -112
135 -176 71z m114 7 c34 -18 46 -39 47 -81 0 -82 -91 -117 -151 -58 -20 20
-29 39 -29 61 0 64 76 109 133 78z"/>
<path d="M2100 5888 c0 -51 2 -58 20 -58 17 0 20 7 20 39 0 42 16 63 31 40 5
-8 9 -29 9 -46 0 -26 4 -33 20 -33 17 0 20 7 20 45 0 33 4 45 15 45 11 0 15
-12 15 -45 0 -39 3 -45 20 -45 19 0 21 5 18 58 l-3 57 -92 1 -93 1 0 -59z"/>
<path d="M282 3034 c-17 -12 -22 -25 -22 -63 0 -56 21 -81 66 -81 43 0 65 20
71 65 10 75 -56 120 -115 79z"/>
</g>
</svg>
