<?xml version="1.0" standalone="no"?>
<!DOCTYPE svg PUBLIC "-//W3C//DTD SVG 20010904//EN"
 "http://www.w3.org/TR/2001/REC-SVG-20010904/DTD/svg10.dtd">
<svg version="1.0" xmlns="http://www.w3.org/2000/svg"
 width="360.000000pt" height="640.000000pt" viewBox="0 0 360.000000 640.000000"
 preserveAspectRatio="xMidYMid meet">
<metadata>
Created by potrace 1.16, written by Peter Selinger 2001-2019
</metadata>
<g transform="translate(0.000000,640.000000) scale(0.100000,-0.100000)"
fill="#000000" stroke="none">
<path d="M3095 6271 c-47 -12 -87 -36 -121 -73 -52 -55 -68 -95 -68 -173 0
-78 16 -118 68 -173 52 -56 101 -76 181 -76 80 0 129 20 181 76 53 55 68 95
68 173 0 100 -48 180 -136 226 -42 21 -129 32 -173 20z m165 -31 c122 -63 169
-210 105 -327 -28 -52 -45 -60 -45 -21 0 11 -15 35 -34 54 -33 33 -36 34 -115
34 -54 0 -92 -5 -111 -15 -32 -16 -60 -61 -60 -95 0 -25 -8 -26 -27 -2 -78 99
-74 233 10 320 75 78 185 99 277 52z m17 -305 c27 -27 34 -41 31 -67 -7 -73
-160 -109 -255 -59 -50 25 -56 54 -23 109 26 42 49 51 139 51 70 1 74 0 108
-34z"/>
<path d="M3089 6171 c-64 -64 -20 -171 70 -171 60 0 106 43 106 100 0 90 -112
135 -176 71z m114 7 c34 -18 46 -39 47 -81 0 -82 -91 -117 -151 -58 -20 20
-29 39 -29 61 0 64 76 109 133 78z"/>
<path d="M304 6145 c-31 -31 -31 -69 0 -100 l24 -24 1158 5 c638 3 1169 7
1182 10 44 9 55 91 14 112 -9 5 -531 12 -1186 15 l-1168 6 -24 -24z m651 -50
l0 -60 -296 -3 c-181 -1 -307 2 -323 8 -30 11 -47 46 -36 75 15 42 39 45 355
42 l300 -2 0 -60z m1285 0 l0 -55 -635 0 -635 0 0 55 0 55 635 0 635 0 0 -55z
m442 38 c22 -20 23 -51 1 -75 -15 -16 -35 -18 -225 -18 l-208 0 0 55 0 55 207
0 c178 0 209 -2 225 -17z"/>
<path d="M1740 3702 l0 -280 58 -6 c112 -13 216 -56 298 -121 l31 -25 104 112
c57 61 129 138 159 169 30 31 68 71 85 88 l29 32 -28 26 c-61 56 -194 139
-278 174 -29 12 -68 28 -85 36 -42 18 -189 49 -273 58 -36 3 -73 9 -82 11 -17
5 -18 -13 -18 -274z"/>
</g>
</svg>
