<?xml version="1.0" standalone="no"?>
<!DOCTYPE svg PUBLIC "-//W3C//DTD SVG 20010904//EN"
 "http://www.w3.org/TR/2001/REC-SVG-20010904/DTD/svg10.dtd">
<svg version="1.0" xmlns="http://www.w3.org/2000/svg"
 width="360.000000pt" height="640.000000pt" viewBox="0 0 360.000000 640.000000"
 preserveAspectRatio="xMidYMid meet">
<metadata>
Created by potrace 1.16, written by Peter Selinger 2001-2019
</metadata>
<g transform="translate(0.000000,640.000000) scale(0.100000,-0.100000)"
fill="#000000" stroke="none">
<path d="M3185 6191 c-47 -12 -87 -36 -121 -73 -52 -55 -68 -95 -68 -173 0
-78 16 -118 68 -173 52 -56 101 -76 181 -76 80 0 129 20 181 76 53 55 68 95
68 173 0 100 -48 180 -136 226 -42 21 -129 32 -173 20z m165 -31 c122 -63 169
-210 105 -327 -28 -52 -45 -60 -45 -21 0 11 -15 35 -34 54 -33 33 -36 34 -115
34 -54 0 -92 -5 -111 -15 -32 -16 -60 -61 -60 -95 0 -25 -8 -26 -27 -2 -78 99
-74 233 10 320 75 78 185 99 277 52z m17 -305 c27 -27 34 -41 31 -67 -7 -73
-160 -109 -255 -59 -50 25 -56 54 -23 109 26 42 49 51 139 51 70 1 74 0 108
-34z"/>
<path d="M3179 6091 c-64 -64 -20 -171 70 -171 60 0 106 43 106 100 0 90 -112
135 -176 71z m114 7 c34 -18 46 -39 47 -81 0 -82 -91 -117 -151 -58 -20 20
-29 39 -29 61 0 64 76 109 133 78z"/>
<path d="M362 5873 c-10 -19 -42 -121 -42 -135 0 -14 38 -8 44 7 3 8 16 15 30
15 13 0 26 -7 30 -15 3 -8 15 -15 26 -15 23 0 22 11 -10 105 -14 41 -21 51
-43 53 -17 2 -29 -3 -35 -15z"/>
<path d="M1610 5789 c0 -52 2 -59 19 -59 16 0 20 8 23 42 4 59 28 63 28 4 0
-39 3 -46 19 -46 16 0 20 8 23 43 2 29 8 42 18 42 10 0 16 -13 18 -42 3 -35 7
-43 23 -43 16 0 19 7 19 49 0 27 -6 53 -12 59 -7 5 -50 10 -95 10 l-83 0 0
-59z"/>
<path d="M393 5243 c-10 -3 -13 -51 -13 -191 0 -103 4 -193 8 -200 7 -10 255
-12 1208 -10 l1199 3 3 180 c1 99 0 190 -3 203 l-5 22 -1193 -1 c-655 0 -1198
-3 -1204 -6z m2392 -198 l0 -190 -1195 0 -1195 0 -3 180 c-1 98 0 185 2 192 4
11 233 13 1198 11 l1193 -3 0 -190z"/>
<path d="M393 4413 c-10 -3 -13 -57 -13 -221 0 -119 4 -223 8 -230 7 -10 287
-12 1368 -10 l1359 3 3 210 c1 116 0 220 -3 233 l-5 22 -1353 -1 c-743 0
-1358 -3 -1364 -6z m2712 -228 l0 -220 -1355 0 -1355 0 -3 210 c-1 115 0 215
2 222 4 11 267 13 1358 11 l1353 -3 0 -220z"/>
<path d="M393 3583 c-10 -3 -13 -57 -13 -221 0 -119 4 -223 8 -230 7 -10 287
-12 1368 -10 l1359 3 3 210 c1 116 0 220 -3 233 l-5 22 -1353 -1 c-743 0
-1358 -3 -1364 -6z m2712 -228 l0 -220 -1355 0 -1355 0 -3 210 c-1 115 0 215
2 222 4 11 267 13 1358 11 l1353 -3 0 -220z"/>
<path d="M393 2793 c-10 -3 -13 -57 -13 -221 0 -119 4 -223 8 -230 7 -10 287
-12 1368 -10 l1359 3 3 210 c1 116 0 220 -3 233 l-5 22 -1353 -1 c-743 0
-1358 -3 -1364 -6z m2712 -228 l0 -220 -1355 0 -1355 0 -3 210 c-1 115 0 215
2 222 4 11 267 13 1358 11 l1353 -3 0 -220z"/>
<path d="M393 1963 c-10 -3 -13 -57 -13 -221 0 -119 4 -223 8 -230 7 -10 287
-12 1368 -10 l1359 3 3 210 c1 116 0 220 -3 233 l-5 22 -1353 -1 c-743 0
-1358 -3 -1364 -6z m2712 -228 l0 -220 -1355 0 -1355 0 -3 210 c-1 115 0 215
2 222 4 11 267 13 1358 11 l1353 -3 0 -220z"/>
</g>
</svg>
